<?xml version="1.0" standalone="no"?>
<!DOCTYPE svg PUBLIC "-//W3C//DTD SVG 20010904//EN"
 "http://www.w3.org/TR/2001/REC-SVG-20010904/DTD/svg10.dtd">
<svg version="1.0" xmlns="http://www.w3.org/2000/svg"
 width="600.000000pt" height="600.000000pt" viewBox="0 0 600.000000 600.000000"
 preserveAspectRatio="xMidYMid meet">
<metadata>
Created by potrace 1.14, written by Peter Selinger 2001-2017
</metadata>
<g transform="translate(0.000000,600.000000) scale(0.100000,-0.100000)"
fill="#000000" stroke="none">
<path d="M624 5205 l-33 -35 21 -48 c33 -73 67 -119 101 -136 18 -8 25 -16 17
-16 -20 0 -80 37 -80 50 0 29 -17 3 -33 -51 -15 -51 -29 -72 -97 -143 -66 -69
-87 -99 -128 -186 -48 -104 -49 -105 -31 -130 16 -21 19 -51 23 -195 2 -93 7
-181 10 -195 3 -14 8 -72 10 -130 6 -137 12 -170 46 -255 15 -38 30 -79 33
-90 4 -16 5 -17 6 -2 2 27 30 20 42 -10 6 -16 13 -66 16 -113 3 -47 11 -91 17
-99 6 -8 7 -12 1 -9 -6 4 -11 -49 -12 -149 -1 -86 1 -153 4 -149 3 3 7 25 9
48 1 24 5 81 9 128 4 47 7 91 8 98 1 21 8 7 38 -80 39 -112 60 -227 61 -342 1
-53 4 -96 8 -96 9 0 5 325 -5 340 -6 10 -4 12 11 5 10 -4 28 -7 39 -5 11 1 29
3 40 4 21 1 21 1 -2 56 -12 30 -23 63 -23 73 0 11 -8 17 -22 17 -29 0 -20 7
17 14 73 14 84 -16 91 -239 2 -88 6 -170 9 -182 7 -28 -7 -36 -41 -23 -15 6
-29 8 -31 6 -3 -3 9 -33 26 -68 38 -77 45 -166 15 -199 -16 -18 -16 -19 1 -19
10 0 33 16 51 36 32 34 34 34 24 8 -22 -58 -86 -90 -122 -61 -33 27 -78 117
-79 160 -1 26 -3 33 -6 18 -4 -20 -12 -9 -47 60 -28 56 -52 91 -74 106 -52 35
-111 14 -144 -51 -20 -39 -20 -39 0 -55 42 -34 50 -73 51 -264 1 -68 4 -86 14
-81 9 6 9 4 -1 -8 -7 -9 -11 -29 -8 -44 2 -16 8 -73 11 -126 4 -54 11 -98 16
-98 5 0 7 10 4 22 -9 36 -11 159 -4 203 5 33 7 35 9 13 3 -35 1 -28 33 -126
15 -46 27 -89 27 -96 0 -7 14 -61 31 -120 38 -133 38 -134 59 -261 5 -33 12
-76 15 -95 4 -19 8 -118 11 -219 2 -102 6 -187 9 -189 9 -9 0 403 -9 417 -6 9
-5 12 1 8 13 -8 24 74 12 88 -5 5 -9 -5 -9 -25 0 -18 -2 -31 -4 -29 -5 5 -9
24 -26 144 -7 44 -14 88 -16 98 -2 10 -6 46 -9 79 l-7 61 26 -16 c14 -9 42
-17 63 -18 37 -1 37 -1 10 -9 -16 -5 -36 -6 -45 -2 -15 5 -16 4 -2 -14 8 -10
18 -21 21 -24 24 -20 29 -52 15 -102 -20 -73 -26 -128 -15 -128 5 0 9 10 10
23 1 50 35 143 40 110 1 -7 2 -17 3 -22 0 -5 5 -13 10 -18 5 -4 7 -4 3 2 -7
13 19 75 31 75 5 0 10 -6 11 -12 3 -15 9 -349 13 -716 2 -140 5 -257 8 -262 3
-5 5 111 5 258 0 242 6 406 20 487 2 17 8 59 11 95 11 106 26 153 50 156 19 3
23 -4 34 -59 21 -107 35 -263 39 -434 1 -18 4 -33 9 -33 8 0 6 319 -2 328 -3
3 -2 10 3 16 8 11 17 58 28 146 3 25 16 88 29 140 13 52 24 110 26 127 3 45
16 28 23 -32 4 -27 17 -99 29 -158 16 -80 22 -140 21 -228 -1 -65 2 -119 7
-119 4 0 8 64 9 143 2 218 11 300 32 291 20 -7 50 -64 63 -119 l12 -50 1 56
c1 38 -7 79 -24 124 -18 47 -24 79 -20 104 3 24 2 31 -4 22 -12 -18 -24 76
-19 139 4 35 5 29 6 -25 1 -38 7 -77 12 -85 6 -10 8 1 4 34 -2 28 -2 48 1 45
4 -5 51 -179 55 -209 6 -43 6 -302 0 -348 -3 -29 -3 -49 1 -45 19 19 29 346
15 488 -5 44 -8 100 -7 125 0 25 3 153 5 285 4 174 2 258 -8 306 -7 37 -11 98
-10 135 1 46 -1 61 -6 44 -8 -25 -8 -25 -10 5 -1 17 -3 39 -6 50 -7 35 -8 155
-1 162 4 3 8 -15 8 -40 1 -26 3 -56 4 -67 1 -11 3 -33 4 -50 2 -43 17 -37 19
6 3 75 9 40 21 -118 7 -90 14 -176 16 -193 6 -42 18 -177 19 -197 0 -10 3 -18
7 -18 4 0 5 30 3 68 -2 37 -6 103 -7 147 -2 44 -7 87 -12 94 -5 9 -4 12 2 8 6
-4 10 8 11 29 1 19 -3 32 -8 29 -5 -3 -12 0 -16 6 -4 8 -3 9 5 5 14 -9 18 3
26 87 5 49 10 67 21 67 9 0 13 -4 10 -9 -3 -5 -8 -57 -12 -117 -5 -92 -2 -120
15 -181 37 -127 61 -217 66 -240 3 -13 8 -35 11 -50 16 -77 5 -202 -22 -256
-11 -21 -12 -28 -3 -19 15 14 43 17 34 3 -10 -17 -18 -251 -9 -251 5 0 10 46
12 103 1 56 4 111 6 122 3 11 5 28 5 37 2 31 65 54 104 38 19 -8 17 -9 -14 -9
-20 -1 -38 -3 -41 -7 -3 -3 2 -22 12 -42 10 -20 21 -73 25 -117 6 -79 11 -125
20 -195 9 -77 15 -140 20 -240 4 -58 8 -116 10 -130 1 -14 6 -50 10 -80 11
-91 17 -71 10 35 -12 171 -12 362 0 440 7 42 14 77 16 80 6 6 102 -126 106
-145 1 -8 6 -64 9 -125 4 -60 8 -112 10 -114 9 -10 13 9 15 80 1 42 4 90 7
108 4 31 5 32 29 15 14 -9 38 -20 54 -24 l28 -8 -30 41 c-17 23 -37 57 -44 75
-23 53 -57 190 -52 204 3 7 6 2 6 -12 1 -14 6 -32 11 -40 7 -11 10 -6 10 20 0
50 29 100 75 132 50 34 51 34 52 1 0 -16 3 -68 7 -118 5 -49 8 -96 9 -103 0
-6 3 -9 6 -6 6 6 7 11 10 39 0 8 4 15 9 15 4 0 8 -21 9 -47 7 -322 16 -529 21
-535 4 -4 7 66 7 155 0 158 5 213 27 347 10 65 28 104 28 62 0 -12 1 -25 2
-29 18 -83 35 -168 42 -223 4 -25 11 -70 16 -100 5 -30 12 -79 15 -109 8 -88
15 -72 15 35 0 68 -3 94 -10 84 -6 -9 -10 -10 -10 -3 0 6 5 15 10 18 6 4 9 20
6 36 -4 29 8 40 17 17 10 -25 7 16 -3 52 -22 72 -22 112 -1 203 11 51 25 130
29 177 10 91 8 319 -2 360 -3 14 -8 37 -12 53 -3 15 -12 27 -19 27 -15 0 -26
39 -27 97 0 48 22 123 37 123 20 0 35 -24 35 -57 0 -18 4 -33 9 -33 6 0 8 16
7 35 -2 19 0 35 5 35 15 0 10 -70 -5 -76 -9 -3 -13 -15 -10 -32 6 -44 13 -133
14 -202 1 -36 4 -57 8 -48 4 10 6 61 5 115 -1 54 3 131 9 171 9 63 13 72 32
73 20 0 44 4 96 14 21 3 19 2 -7 -10 -17 -8 -43 -16 -57 -19 -41 -7 -45 -13
-36 -49 5 -17 12 -62 15 -99 4 -55 34 -161 50 -177 2 -2 2 31 0 73 -4 86 9
146 30 146 24 0 29 -46 29 -247 0 -106 3 -193 7 -193 4 0 7 37 8 83 1 74 9
178 17 217 1 8 3 26 3 40 1 39 19 10 27 -45 10 -65 10 -130 -1 -180 l-8 -40
30 34 c17 18 33 29 36 24 4 -6 9 -48 12 -94 4 -46 8 -109 11 -139 4 -49 9
-190 16 -452 3 -131 14 -106 15 34 0 137 8 254 23 342 9 56 20 86 20 55 0 -8
16 -53 34 -99 19 -47 38 -101 41 -120 3 -19 10 -60 15 -90 6 -30 12 -116 15
-190 4 -79 10 -139 17 -145 7 -7 9 -7 5 0 -3 6 -7 85 -8 175 -1 91 -6 173 -12
184 -6 13 -6 16 2 11 8 -5 10 1 5 20 l-6 26 35 -21 c20 -12 41 -19 47 -15 6 4
10 -9 10 -34 0 -23 3 -41 8 -41 4 0 7 18 6 40 0 27 4 40 13 40 7 0 13 -5 13
-11 0 -13 41 -72 46 -66 2 2 -2 22 -10 43 -21 61 -26 123 -15 194 15 96 15 95
47 74 55 -36 54 -28 46 -241 -10 -289 -9 -353 4 -353 4 0 7 62 7 137 0 76 3
161 7 188 4 28 10 76 14 108 4 32 10 60 14 62 9 6 36 -58 45 -106 11 -64 22
-333 28 -738 1 -73 6 -106 15 -109 6 -2 12 1 12 8 0 6 -5 8 -10 5 -14 -9 -12
8 3 24 6 8 7 11 1 8 -20 -11 -3 738 21 891 2 12 11 30 21 39 25 25 52 92 64
154 8 45 9 34 5 -64 -2 -64 -2 -117 0 -117 7 0 53 102 61 135 l7 30 13 -30
c10 -22 13 -103 14 -294 0 -145 2 -262 4 -260 3 2 7 141 10 309 7 391 17 485
57 560 l19 35 -5 -70 c-3 -38 -7 -81 -10 -95 -7 -32 -7 -287 0 -319 2 -14 7
-79 11 -145 3 -67 8 -159 10 -206 2 -47 5 -110 6 -140 1 -52 1 -53 7 -15 8 51
6 190 -4 325 -11 149 -5 264 15 299 8 13 10 11 11 -9 0 -14 2 -36 5 -50 2 -14
6 -72 10 -130 4 -58 8 -107 10 -109 2 -2 4 52 4 122 0 156 3 165 41 133 15
-13 33 -26 38 -28 10 -3 15 -42 26 -228 4 -58 12 -111 17 -118 7 -8 7 -12 -1
-12 -7 0 -10 -4 -7 -8 3 -5 8 -56 12 -113 3 -57 8 -122 9 -144 2 -22 3 -98 4
-169 1 -71 3 -127 6 -124 5 5 6 445 2 498 -2 14 -7 31 -11 39 -6 9 -5 12 2 7
7 -4 10 3 9 21 -1 15 -9 31 -17 35 -13 6 -13 7 0 7 11 1 15 12 15 38 -1 34 21
215 28 237 2 4 17 -4 36 -19 l32 -28 30 22 c37 27 38 20 2 -14 -16 -14 -41
-38 -56 -53 l-29 -27 32 -3 c62 -6 94 30 150 172 21 50 41 91 46 91 20 0 36
-83 34 -180 -4 -203 -4 -252 3 -355 10 -154 19 -244 24 -250 2 -2 4 63 3 145
-3 392 10 609 42 688 12 32 17 30 24 -9 19 -99 22 -110 24 -81 1 15 3 30 4 35
1 4 6 35 10 70 5 35 10 62 11 60 2 -2 6 -23 10 -48 4 -24 13 -59 20 -76 7 -18
16 -61 20 -96 4 -34 8 -65 10 -68 2 -3 6 -32 9 -65 3 -33 9 -88 12 -122 3 -35
7 -110 8 -168 2 -58 4 -107 7 -109 2 -2 5 61 6 140 4 232 11 284 41 342 21 40
37 51 38 25 1 -34 16 -128 22 -137 3 -5 5 -98 5 -205 l0 -196 9 155 c6 85 10
265 11 400 0 226 -2 255 -26 378 -30 148 -34 227 -12 256 22 30 33 10 41 -74
3 -41 9 -77 11 -80 5 -5 -1 91 -12 220 -17 191 -10 270 26 270 26 0 24 15 -6
37 -18 13 -23 24 -19 41 l6 22 19 -21 c27 -31 41 -15 34 39 -3 25 -8 49 -10
53 -3 3 -7 31 -10 60 l-6 54 15 -33 c8 -18 22 -35 30 -38 8 -3 17 -17 21 -32
7 -28 7 -178 -1 -252 -10 -104 -16 -420 -8 -420 5 0 9 28 10 63 2 149 38 342
70 368 15 12 14 15 18 -121 1 -63 -8 -186 -19 -247 -7 -39 -6 -43 13 -43 20 0
21 -4 17 -117 -5 -136 -5 -429 0 -488 1 -22 3 -67 4 -99 1 -33 4 -56 8 -53 9
10 11 177 1 177 -4 0 -7 15 -7 33 l1 32 8 -30 c6 -24 8 -17 10 35 1 36 4 74 5
85 1 11 5 49 9 85 4 36 13 97 20 135 l12 70 13 -60 c7 -33 22 -82 32 -110 20
-52 31 -171 33 -357 1 -54 4 -98 7 -98 4 0 7 45 8 99 1 54 3 107 5 118 2 10 6
39 10 65 l7 46 42 -24 c23 -13 54 -24 68 -24 18 0 26 -5 26 -17 0 -60 4 -95
10 -89 4 3 6 28 4 55 -2 43 1 51 30 75 l33 28 33 -67 c41 -81 88 -222 97 -290
9 -75 15 -115 22 -165 3 -25 7 -51 7 -57 0 -7 3 -13 6 -13 3 0 6 78 6 172 0
181 13 254 53 303 81 99 129 -40 77 -219 -18 -60 -19 -82 -1 -41 6 16 15 25
18 20 15 -25 21 -174 19 -450 -1 -165 0 -297 2 -295 2 3 7 133 11 290 7 282
14 436 21 475 2 11 4 37 4 57 1 34 5 40 48 63 66 34 79 46 96 85 l14 35 12
-55 c13 -65 20 -152 23 -307 3 -130 17 -153 19 -30 2 150 16 434 24 502 11 91
15 115 40 220 14 61 27 128 30 150 3 22 9 65 15 95 5 30 6 129 3 220 -6 181
-5 288 2 365 2 28 7 83 11 122 4 45 11 70 17 66 20 -12 0 302 -29 452 -22 115
-28 171 -29 310 -3 240 -25 301 -135 370 -72 45 -98 82 -118 166 -12 46 -10
177 2 279 6 44 5 51 -5 36 -38 -61 -81 -240 -82 -346 0 -41 -2 -61 -4 -43 -3
25 -10 33 -31 37 -85 17 -140 -13 -190 -104 -30 -56 -67 -161 -76 -215 -3 -16
-10 -59 -15 -95 -7 -38 -9 -156 -6 -287 2 -122 2 -229 -1 -238 -6 -15 -33 -21
-35 -7 0 4 -2 59 -4 122 -1 63 -6 149 -10 190 -4 41 -7 82 -7 90 12 176 -31
300 -104 300 -12 0 -30 3 -39 6 -15 6 -15 3 0 -33 27 -68 25 -131 -6 -210 -15
-38 -32 -94 -37 -124 -13 -67 -14 -282 -2 -335 5 -21 12 -55 15 -74 3 -19 9
-37 12 -40 3 -3 3 6 0 19 -3 13 -2 20 3 15 14 -15 29 -120 21 -150 -6 -24 -35
-50 -30 -27 1 4 -6 24 -15 43 -17 34 -17 33 -11 -80 6 -109 10 -154 21 -210 3
-14 7 -90 10 -170 3 -80 6 -155 8 -167 2 -13 0 -23 -4 -23 -4 0 -11 20 -14 45
-4 24 -32 93 -62 152 -61 119 -124 266 -123 286 0 6 9 -8 19 -33 l19 -45 0 49
c1 39 6 53 26 72 24 22 24 23 9 76 -8 29 -28 80 -43 113 -24 54 -27 70 -25
165 2 86 -3 120 -22 185 -14 44 -26 89 -28 100 -9 45 -56 133 -100 183 -25 29
-50 70 -55 90 -11 40 -6 126 9 181 5 19 8 36 6 38 -4 5 -44 -65 -80 -139 -31
-65 -53 -80 -62 -42 -12 48 -39 -19 -49 -121 -3 -33 -8 -75 -11 -94 l-6 -35
-15 32 c-17 34 -49 49 -86 38 -12 -4 -34 -9 -49 -12 -25 -5 -26 -3 -22 23 11
68 18 91 41 136 13 26 21 52 18 57 -3 5 -21 12 -40 16 -27 5 -49 -1 -97 -24
-90 -42 -114 -46 -135 -23 -9 11 -20 18 -23 16 -13 -8 7 80 28 128 20 44 20
47 3 47 -20 0 -88 -43 -109 -69 -56 -71 -88 -183 -98 -346 -9 -139 -22 -187
-52 -191 -18 -3 -22 1 -22 23 0 14 -3 23 -7 19 -8 -7 -8 -9 -17 -88 -4 -31 -9
-66 -12 -79 -8 -43 -5 -263 6 -314 16 -80 59 -232 60 -211 0 10 -7 45 -16 78
-8 33 -13 62 -11 64 8 8 46 -105 42 -126 -7 -35 -16 -41 -46 -35 l-28 6 14
-48 c17 -54 20 -129 6 -138 -13 -7 -37 19 -64 69 -19 36 -21 53 -18 141 7 194
6 361 -3 415 -14 87 -14 188 0 216 11 21 10 31 -7 72 -37 88 -59 110 -131 138
-61 23 -108 61 -108 86 0 29 -44 106 -69 121 -20 12 -31 28 -36 54 -10 54 -42
116 -67 132 -23 15 -98 23 -98 10 0 -3 7 -12 15 -19 21 -17 19 -79 -3 -115
-37 -62 -91 -224 -86 -259 2 -13 -2 -16 -14 -10 -9 4 -39 13 -66 20 -27 8 -50
15 -51 16 -13 14 -12 98 0 122 20 37 20 37 -15 24 -80 -28 -182 -186 -216
-336 -9 -40 -18 -71 -21 -69 -10 11 -17 70 -16 155 0 50 -2 92 -3 92 -8 0 -52
-97 -60 -130 -4 -19 -8 -37 -9 -40 -1 -3 -5 -30 -10 -60 -5 -30 -10 -58 -11
-62 -1 -5 -3 -25 -4 -45 l-3 -38 -8 35 c-6 26 -7 20 -3 -25 5 -71 -16 -202
-44 -265 -11 -25 -35 -58 -53 -75 l-33 -30 28 34 c37 46 68 108 71 145 2 17 8
60 14 95 7 44 7 79 0 115 -16 78 -16 78 -39 66 -26 -14 -25 -6 4 66 24 59 24
59 35 31 6 -16 11 -39 11 -52 0 -13 3 -26 8 -28 4 -3 7 48 7 114 0 65 -4 119
-8 119 -5 0 -17 -5 -27 -10 -29 -15 -33 2 -34 124 -2 125 -20 194 -64 243 -40
44 -76 50 -118 18 -51 -39 -58 -58 -32 -90 20 -26 22 -38 20 -149 -1 -67 -5
-155 -9 -196 -12 -123 -5 -240 17 -305 26 -75 25 -82 -6 -82 -35 0 -49 -16
-31 -34 35 -35 41 -86 20 -169 -3 -14 -7 -80 -8 -147 -3 -107 -7 -157 -21
-228 -3 -11 -5 -34 -6 -52 l-1 -32 -28 19 c-15 11 -30 20 -33 20 -12 0 -6 -28
8 -39 22 -18 57 -189 36 -176 -5 3 -10 -1 -10 -9 0 -8 -6 -19 -13 -23 -8 -4
-24 -28 -38 -53 -13 -25 -25 -47 -27 -50 -2 -2 -8 2 -13 10 -8 12 -9 11 -7 -5
2 -14 -3 -21 -18 -23 -23 -3 -43 16 -73 73 l-21 40 3 -70 c2 -38 0 -86 -4
-105 -6 -32 -6 -32 -8 -7 0 17 -5 26 -11 22 -17 -11 -57 22 -84 67 -52 91 -69
170 -71 343 -2 88 1 174 5 190 4 17 8 23 9 15 3 -32 21 -146 27 -170 3 -14 8
-88 10 -165 3 -76 7 -142 11 -145 3 -3 3 91 1 209 -4 167 -8 215 -19 222 -8 5
-9 9 -4 9 6 0 10 50 11 128 1 70 6 152 13 182 12 59 44 120 61 120 12 0 4 -73
-11 -102 -8 -15 -5 -18 18 -18 37 0 49 9 67 50 10 23 15 28 16 16 0 -28 -56
-141 -82 -166 -12 -11 -28 -18 -35 -15 -10 3 -11 0 -3 -15 16 -30 68 -53 106
-47 30 5 34 3 43 -26 12 -36 18 -81 26 -177 3 -36 9 -99 13 -140 4 -41 7 -108
7 -147 0 -40 3 -73 6 -73 3 0 6 123 5 273 0 298 5 366 33 453 11 33 23 77 27
99 5 22 9 42 9 45 8 33 16 115 20 200 5 114 15 181 39 249 13 36 14 42 2 31
-8 -6 -22 -33 -31 -58 -9 -26 -22 -58 -30 -72 l-14 -25 -1 26 c0 15 7 64 16
110 25 131 7 255 -49 352 -25 42 -50 60 -95 70 -23 5 -24 4 -16 -46 4 -29 7
-101 5 -162 l-2 -110 -32 -25 c-17 -14 -52 -44 -77 -66 -26 -24 -60 -45 -80
-49 -96 -20 -157 -77 -203 -194 -26 -65 -27 -81 -3 -81 18 0 26 -32 26 -111 0
-58 -3 -68 -27 -91 -37 -34 -83 -63 -83 -52 0 5 -4 3 -9 -5 -11 -17 -29 38
-38 116 -3 29 -9 51 -12 49 -4 -3 0 36 8 85 8 49 15 88 17 87 5 -6 15 -89 20
-178 4 -52 8 -97 10 -99 2 -2 4 58 4 135 1 185 6 316 17 389 28 202 -16 362
-106 390 -21 6 -23 5 -16 -11 5 -11 8 -30 8 -44 -1 -14 -2 -84 -2 -157 -1 -73
-4 -139 -7 -148 -3 -8 -17 -15 -29 -15 -27 0 -38 23 -37 83 1 80 -23 0 -35
-118 -10 -95 -6 -249 7 -310 1 -5 1 -12 0 -15 -1 -3 -3 -23 -4 -44 -2 -29 -10
-45 -29 -61 -24 -18 -27 -28 -28 -85 -2 -90 10 -281 20 -336 9 -47 -1 -63 -33
-51 -17 7 -61 67 -48 67 5 0 8 10 6 23 -8 45 -9 255 -1 250 4 -2 7 8 8 24 1
46 9 104 24 183 37 190 50 331 50 545 -1 199 -11 263 -70 445 -24 74 -47 152
-51 173 -7 43 -24 33 -24 -14 0 -29 -14 -45 -45 -51 -19 -3 -18 -6 9 -31 16
-15 24 -27 19 -27 -24 0 -62 43 -94 106 -42 81 -98 144 -129 144 -13 0 -37
-15 -56 -35z m209 -395 c23 -67 14 -102 -13 -50 -10 20 -22 53 -26 74 -10 58
16 42 39 -24z m100 -119 c-9 -12 -25 20 -18 36 7 16 9 15 15 -7 4 -14 5 -27 3
-29z m4237 -22 c0 -5 -13 -23 -29 -41 -15 -18 -34 -51 -41 -72 -11 -33 -14
-36 -22 -21 -8 13 -5 27 11 55 11 21 21 47 21 58 0 30 28 56 46 41 8 -6 14
-15 14 -20z m76 -33 c-1 -16 -7 -31 -13 -33 -10 -4 -12 47 -3 92 3 20 17 -30
16 -59z m-4019 -38 c-3 -7 -5 -2 -5 12 0 14 2 19 5 13 2 -7 2 -19 0 -25z m598
-60 c-2 -29 -8 -64 -14 -78 -9 -20 -10 -15 -6 30 5 46 10 85 14 98 1 1 3 2 5
2 2 0 2 -24 1 -52z m-580 -20 c-7 -56 -23 -128 -29 -128 -7 0 6 133 15 157 14
39 21 26 14 -29z m4276 -39 c22 -44 23 -49 9 -49 -5 0 -10 6 -10 14 0 7 -11
30 -25 50 -14 20 -25 39 -25 43 0 14 33 -24 51 -58z m-3393 5 l-4 -29 -11 25
c-12 28 -6 57 9 42 5 -5 8 -22 6 -38z m-1455 -41 c7 8 22 18 33 21 18 6 23 2
28 -26 11 -61 16 -83 26 -135 10 -47 17 -128 19 -230 2 -78 16 -44 17 40 1 74
9 185 18 275 2 18 6 36 10 39 6 7 8 -11 8 -89 1 -45 11 -63 21 -35 8 20 43
-22 66 -78 20 -49 21 -49 16 -12 -3 20 -1 37 3 37 8 0 17 -231 14 -330 -4
-109 -2 -268 3 -290 3 -14 8 -54 10 -90 l5 -65 -16 34 c-13 30 -58 185 -70
244 -11 55 -18 126 -17 172 2 69 -12 29 -21 -59 -3 -37 -13 -78 -21 -89 -16
-23 -17 -22 -18 51 0 23 -3 42 -7 42 -4 0 -7 -24 -6 -52 3 -67 -1 -78 -26 -78
-20 0 -20 -1 -3 -27 10 -16 29 -40 43 -55 14 -16 22 -28 18 -28 -18 0 -74 74
-111 146 -30 59 -40 90 -40 126 0 26 -3 48 -7 48 -5 0 -8 -6 -8 -12 -1 -7 -12
28 -25 79 -13 50 -31 102 -40 116 -21 33 -59 39 -85 15 -11 -10 -20 -14 -20
-9 0 5 5 13 10 16 6 4 17 22 25 41 16 39 42 45 69 15 28 -31 66 -147 67 -204
0 -36 3 -46 8 -32 5 11 7 69 5 130 -1 72 2 117 10 133 10 19 9 33 -5 76 -10
29 -20 81 -22 117 -3 35 -2 49 0 30 4 -27 6 -30 16 -18z m1380 -33 c2 -47 2
-71 -1 -55 -4 27 -5 28 -13 10 -6 -14 -7 -8 -4 20 2 22 4 58 5 79 0 68 8 35
13 -54z m-1257 -34 c-5 -53 -10 -95 -12 -93 -3 3 -7 135 -5 181 1 22 4 26 14
18 10 -8 10 -32 3 -106z m4474 66 c0 -12 10 -53 23 -90 13 -37 25 -89 27 -117
3 -59 7 -108 10 -150 2 -16 6 2 11 40 5 39 10 79 13 90 2 11 5 26 5 32 1 9 8
10 25 3 17 -6 26 -5 30 3 3 7 4 -1 1 -18 -2 -16 -7 -64 -10 -105 -5 -54 -16
-94 -40 -145 -58 -125 -87 -229 -81 -290 3 -31 7 -59 9 -63 6 -9 16 -231 18
-369 1 -57 4 -103 8 -103 3 0 7 60 9 133 2 109 16 241 36 352 22 124 30 156
39 162 6 4 32 -18 59 -48 51 -57 66 -86 22 -42 l-26 26 -14 -24 c-25 -45 -48
-148 -48 -219 0 -46 14 -250 19 -281 18 -116 27 -319 15 -369 -12 -51 -17 -85
-20 -150 -1 -25 -4 -37 -7 -27 -2 10 -12 16 -21 15 -15 -3 -17 10 -20 90 -1
50 -7 92 -11 92 -5 0 -12 -26 -16 -57 -9 -77 -13 -95 -21 -102 -4 -3 -4 2 -1
12 4 10 3 16 -2 13 -4 -3 -8 -25 -8 -48 -1 -86 -80 -215 -143 -233 -20 -5 -17
-2 10 15 43 27 65 53 90 109 25 55 25 55 -5 26 -13 -14 -33 -25 -44 -25 -23 0
-58 41 -68 79 -10 37 -9 148 1 199 l9 43 -29 -3 -29 -3 4 160 c3 88 4 187 4
220 0 110 -15 490 -20 510 -9 38 -13 336 -5 331 5 -3 15 7 22 22 13 26 14 25
26 -43 7 -38 22 -110 33 -160 17 -77 19 -120 16 -305 -3 -197 -9 -295 -21
-375 -7 -50 -17 -250 -12 -245 3 3 8 52 12 110 3 58 8 116 11 129 5 27 11 84
20 205 4 44 8 172 10 285 2 114 4 206 5 206 4 0 14 122 25 310 6 100 11 152
19 190 3 11 5 27 5 35 2 25 21 -10 21 -38z m-4700 -40 c0 -34 -4 -51 -10 -47
-6 4 -8 9 -6 13 2 4 1 27 -4 52 -5 25 -6 49 -3 53 11 18 23 -19 23 -71z m187
41 c-3 -10 -5 -4 -5 12 0 17 2 24 5 18 2 -7 2 -21 0 -30z m4820 -46 c1 -57 0
-65 -7 -37 -18 75 -20 110 -7 110 8 0 13 -22 14 -73z m-2680 41 c0 -7 3 -24 7
-37 6 -17 5 -22 -5 -19 -15 5 -26 68 -11 68 5 0 9 -6 9 -12z m777 -21 c-7 -18
-24 -23 -24 -8 0 22 13 42 22 33 5 -5 6 -16 2 -25z m1552 25 c-9 -14 -26 -261
-29 -434 -1 -21 -5 -38 -10 -38 -5 0 -7 88 -5 208 5 199 16 272 40 272 5 0 7
-4 4 -8z m-936 -79 c0 -7 -4 -13 -10 -13 -5 0 -10 12 -10 28 0 21 2 24 10 12
5 -8 10 -21 10 -27z m-3868 -5 c-8 -8 -9 -4 -5 13 4 13 8 18 11 10 2 -7 -1
-18 -6 -23z m5143 -63 c4 -32 3 -35 -5 -17 -5 12 -12 44 -14 70 -5 40 -4 43 4
17 5 -16 12 -48 15 -70z m-5149 8 c-3 -21 -6 -56 -6 -78 -2 -35 -3 -37 -9 -15
-9 28 -8 49 3 98 10 44 19 41 12 -5z m4404 16 c0 -6 -4 -7 -10 -4 -5 3 -10 11
-10 16 0 6 5 7 10 4 6 -3 10 -11 10 -16z m-1840 -29 c8 -29 18 -44 36 -50 38
-15 50 -52 31 -100 -15 -38 -15 -39 3 -30 24 13 26 8 34 -65 4 -33 9 -73 11
-90 3 -16 8 -76 11 -131 5 -97 5 -102 -17 -117 -16 -12 -27 -13 -41 -6 -26 14
-28 11 -19 -38 11 -57 5 -131 -13 -173 l-15 -35 -1 35 c-1 19 -2 159 -4 311
-2 153 -6 281 -8 285 -3 5 -4 36 -3 69 1 33 -2 71 -6 85 -11 36 -19 90 -14 90
2 0 9 -18 15 -40z m-2043 -7 c-3 -10 -5 -4 -5 12 0 17 2 24 5 18 2 -7 2 -21 0
-30z m346 -25 c-11 -23 -11 -23 -18 4 -4 16 -4 36 0 45 6 16 8 16 18 -4 7 -16
7 -30 0 -45z m774 20 c-3 -7 -5 -2 -5 12 0 14 2 19 5 13 2 -7 2 -19 0 -25z
m2069 -50 c1 -67 -3 -67 -28 4 -22 64 -23 60 5 56 20 -3 22 -9 23 -60z m1219
42 c3 -5 1 -10 -4 -10 -6 0 -11 5 -11 10 0 6 2 10 4 10 3 0 8 -4 11 -10z
m-1193 -87 l-10 -48 1 69 c1 50 4 63 10 48 6 -13 5 -39 -1 -69z m-1974 11 c2
-51 0 -65 -10 -62 -17 6 -22 66 -9 101 6 15 12 27 13 27 2 0 4 -30 6 -66z
m407 35 c-4 -5 1 -16 9 -25 18 -18 20 -30 6 -39 -6 -4 -17 8 -24 26 -14 34
-11 63 5 53 5 -3 7 -10 4 -15z m2282 -11 c-3 -7 -5 -2 -5 12 0 14 2 19 5 13 2
-7 2 -19 0 -25z m640 -5 c11 -21 20 -60 21 -88 1 -49 1 -49 -11 -19 -7 17 -20
39 -29 48 -19 18 -26 96 -9 96 5 0 18 -17 28 -37z m-3802 0 c-10 -40 -13 -56
-14 -73 -1 -13 -3 -13 -10 -1 -10 16 -5 54 10 83 14 27 22 22 14 -9z m1016
-10 c-10 -17 -10 -16 -11 3 0 23 13 41 18 25 2 -6 -1 -18 -7 -28z m-674 -15
c-3 -8 -6 -5 -6 6 -1 11 2 17 5 13 3 -3 4 -12 1 -19z m-1391 -23 c9 -50 0 -53
-13 -5 -5 22 -7 40 -2 40 4 0 11 -16 15 -35z m2597 -15 c3 -11 2 -18 -3 -15
-4 3 -10 14 -13 25 -3 11 -2 18 3 15 4 -3 10 -14 13 -25z m-1966 -2 c-3 -8 -6
-5 -6 6 -1 11 2 17 5 13 3 -3 4 -12 1 -19z m2952 -183 c0 -5 -11 19 -24 55
-14 36 -26 68 -27 72 -2 4 -4 -61 -5 -145 -1 -84 -6 -172 -11 -197 -6 -25 -13
-56 -16 -69 -3 -14 -10 -29 -16 -35 -5 -5 -10 -19 -10 -30 0 -16 -2 -18 -9 -7
-6 9 -11 0 -16 -30 -4 -24 -9 -53 -11 -64 -7 -32 -6 -187 0 -225 4 -19 11 -60
17 -90 5 -30 13 -85 16 -122 5 -65 5 -68 -16 -68 -14 0 -45 -23 -82 -60 -66
-66 -112 -152 -124 -234 -5 -35 -9 -45 -16 -35 -5 8 -9 10 -9 4 0 -5 -4 -4 -9
4 -5 8 -3 36 4 67 13 55 5 70 -23 42 -9 -9 -11 5 -7 64 3 42 7 152 9 246 4
170 13 212 43 212 7 0 13 2 13 5 0 13 -95 151 -130 189 l-40 43 4 184 c3 101
7 195 10 209 3 14 8 38 12 54 l6 28 38 -37 c21 -20 40 -32 44 -27 3 5 -3 44
-15 87 -11 43 -17 80 -14 83 3 3 5 -1 5 -10 0 -8 18 -40 40 -71 38 -52 56
-107 74 -217 3 -19 9 -177 12 -350 3 -173 7 -316 10 -319 2 -2 5 74 6 170 1
220 3 264 12 278 4 6 2 11 -5 11 -10 0 -10 3 -1 12 9 9 9 15 -1 27 -9 12 -9
13 1 7 9 -5 12 6 13 46 2 131 8 240 12 245 18 17 62 -60 71 -123 4 -23 7 -88
8 -145 l2 -104 19 65 c10 36 23 74 29 85 7 12 12 85 14 181 2 148 8 215 22
238 5 8 72 -179 71 -199z m647 79 c2 -41 0 -74 -5 -74 -12 0 -21 36 -21 83 0
20 -4 37 -9 37 -5 0 -8 8 -6 18 2 9 4 28 5 42 l1 25 15 -28 c9 -16 17 -62 20
-103z m-2493 7 c-8 -10 -14 10 -18 60 l-4 54 12 -55 c8 -30 12 -57 10 -59z
m1541 70 c-6 -6 -24 19 -24 34 1 6 7 1 15 -9 8 -11 12 -22 9 -25z m1228 -44
c3 -33 1 -54 -4 -49 -5 5 -11 38 -14 73 -3 42 -2 59 5 49 5 -8 11 -41 13 -73z
m-1808 58 c-4 -8 -8 -15 -10 -15 -2 0 -4 7 -4 15 0 8 4 15 10 15 5 0 7 -7 4
-15z m1145 -44 c0 -11 -3 -10 -9 5 -5 12 -13 25 -19 29 -6 3 -11 12 -11 18 1
7 10 1 20 -12 11 -13 20 -31 19 -40z m527 34 c-1 -29 -16 -35 -16 -7 0 16 8
32 16 32 1 0 1 -11 0 -25z m-562 -34 c35 -47 38 -55 43 -138 l6 -88 -37 40
c-47 53 -92 145 -76 155 7 4 10 12 6 18 -5 9 9 62 17 62 1 0 20 -22 41 -49z
m-3177 7 c-3 -7 -5 -2 -5 12 0 14 2 19 5 13 2 -7 2 -19 0 -25z m-84 -31 c-8
-12 -23 14 -22 38 0 18 1 17 13 -5 8 -14 12 -29 9 -33z m1911 1 c-7 -62 -14
-75 -15 -30 -3 77 -2 82 11 82 5 0 7 -22 4 -52z m74 19 c12 -11 22 -25 22 -31
0 -5 -6 -1 -14 10 -21 28 -29 12 -17 -32 10 -43 8 -94 -9 -168 -10 -46 -36
-106 -45 -106 -8 0 0 335 8 348 9 14 21 9 55 -21z m156 -62 l4 -30 -13 30 c-8
17 -14 46 -14 65 l1 35 9 -35 c5 -19 11 -48 13 -65z m155 40 c0 -5 -4 -3 -9 5
-5 8 -9 22 -9 30 0 16 17 -16 18 -35z m-864 25 c3 -5 8 -28 11 -52 3 -24 10
-67 15 -96 6 -29 12 -65 14 -80 2 -15 8 -47 14 -72 23 -102 32 -223 35 -456 0
-62 4 -110 9 -107 4 2 8 19 8 36 l2 32 7 -35 c11 -51 4 -240 -9 -274 -7 -16
-19 -35 -28 -41 -14 -10 -12 -14 11 -32 34 -27 54 -77 60 -147 4 -61 -8 -85
-18 -34 -10 53 -85 230 -126 298 -48 81 -55 115 -35 163 8 20 15 42 15 50 0
24 -61 106 -94 127 -42 25 -50 25 -43 0 8 -31 0 -24 -19 18 -10 20 -30 53 -46
73 -23 30 -28 47 -28 92 0 64 8 70 64 51 61 -22 61 -22 62 69 3 152 7 207 16
207 4 0 9 -4 9 -10 1 -5 3 -14 4 -20 1 -5 3 -20 4 -32 2 -37 9 -15 15 47 7 75
12 98 30 160 16 51 8 71 -22 60 -7 -3 -11 -1 -8 4 7 11 64 12 71 1z m56 -39
c10 -45 23 -258 15 -250 -3 2 -8 27 -11 54 -4 28 -8 57 -10 65 -11 38 -25 163
-19 171 9 15 15 5 25 -40z m33 5 c1 -20 -1 -39 -6 -42 -4 -3 -8 16 -8 42 0 55
9 54 14 0z m55 2 c-1 -21 7 -105 16 -175 2 -15 4 -38 4 -50 1 -13 5 -23 9 -23
4 0 5 24 2 53 -3 28 -2 66 1 82 8 34 8 31 14 -105 2 -52 2 -86 -1 -75 -12 40
-19 33 -16 -15 3 -41 1 -50 -12 -50 -10 0 -16 9 -16 23 0 50 -16 36 -32 -30
l-17 -68 4 150 c4 157 21 305 36 305 5 0 8 -10 8 -22z m2068 -15 c-3 -10 -5
-4 -5 12 0 17 2 24 5 18 2 -7 2 -21 0 -30z m-1097 -23 c0 -11 -4 -20 -9 -20
-5 0 -7 9 -4 20 3 11 7 20 9 20 2 0 4 -9 4 -20z m530 -20 c7 -17 10 -34 6 -37
-10 -10 -35 29 -36 55 0 30 14 21 30 -18z m-2745 -10 c-9 -18 -31 -47 -48 -64
-18 -18 -39 -42 -47 -55 -14 -21 -15 -17 -17 59 -1 71 0 79 13 63 7 -10 14
-24 14 -31 0 -7 7 -15 15 -19 17 -6 61 38 71 70 3 10 8 16 11 14 2 -3 -3 -20
-12 -37z m852 8 c-3 -7 -5 -2 -5 12 0 14 2 19 5 13 2 -7 2 -19 0 -25z m1330 0
c-3 -8 -6 -5 -6 6 -1 11 2 17 5 13 3 -3 4 -12 1 -19z m222 -6 c5 -10 6 -24 2
-31 -6 -9 -10 -3 -13 18 -5 36 -3 38 11 13z m45 -25 c-1 -12 -3 -80 -3 -151
-1 -71 -3 -127 -6 -124 -3 2 -7 73 -9 156 -3 117 -1 150 8 146 7 -3 11 -15 10
-27z m120 18 c3 -8 1 -15 -4 -15 -6 0 -10 7 -10 15 0 8 2 15 4 15 2 0 6 -7 10
-15z m-1381 -20 c-7 -21 -12 -19 -10 4 0 11 5 18 9 15 4 -3 5 -11 1 -19z
m-857 -8 c-3 -13 -6 -57 -7 -98 -2 -82 -15 -132 -28 -110 -5 8 -5 28 1 45 5
17 11 61 13 98 2 37 6 72 10 78 11 18 17 11 11 -13z m1070 15 c17 -11 37 -54
41 -87 l3 -30 -17 25 c-10 14 -16 35 -15 46 2 14 -5 28 -20 38 -22 15 -14 23
8 8z m-1035 -25 c-10 -9 -11 -8 -5 6 3 10 9 15 12 12 3 -3 0 -11 -7 -18z
m1812 -67 c4 -36 9 -121 13 -189 l7 -123 -24 7 c-13 3 -32 9 -41 11 -10 3 -18
13 -18 22 0 14 -8 17 -42 15 l-43 -2 39 8 c66 14 76 35 77 172 1 65 3 124 4
129 1 6 3 18 4 28 3 36 18 -12 24 -78z m1797 28 c0 -16 -4 -28 -9 -28 -9 0
-20 67 -12 75 8 9 21 -19 21 -47z m-2013 -3 c0 -8 -4 -12 -9 -9 -5 3 -6 10 -3
15 9 13 12 11 12 -6z m-2932 -75 c2 -11 0 -22 -6 -25 -10 -7 -10 -6 -14 44 -2
26 -1 31 7 18 5 -10 11 -26 13 -37z m1933 38 c5 -42 7 -207 4 -226 -4 -22 -5
-22 -19 5 -17 33 -20 87 -9 171 7 55 20 83 24 50z m-711 -45 c-3 -10 -5 -2 -5
17 0 19 2 27 5 18 2 -10 2 -26 0 -35z m1177 -7 c14 -48 21 -140 16 -206 -2
-19 -4 -15 -11 15 -4 22 -11 51 -14 65 -9 38 -19 180 -12 180 3 0 13 -24 21
-54z m-1324 10 c0 -2 -7 -19 -15 -37 l-14 -34 -1 31 c0 17 3 34 7 37 7 8 23 9
23 3z m3722 -86 c-6 -19 -13 -59 -17 -88 -4 -29 -9 -51 -12 -48 -5 4 6 93 22
181 7 39 8 40 12 15 3 -13 0 -40 -5 -60z m-3760 28 c8 -46 3 -113 -7 -113 -4
0 -10 33 -12 73 -3 72 10 100 19 40z m3724 -40 c-3 -40 -6 -80 -7 -88 -2 -28
-17 35 -18 78 -1 40 12 82 25 82 3 0 3 -33 0 -72z m-2609 30 c-3 -7 -5 -2 -5
12 0 14 2 19 5 13 2 -7 2 -19 0 -25z m-1151 -56 c4 -52 1 -65 -21 -97 -32 -48
-46 -99 -56 -205 -6 -71 -7 -64 -3 45 4 133 7 161 26 230 12 47 37 99 44 92 3
-3 8 -32 10 -65z m-878 -18 c25 -39 30 -104 9 -104 -18 0 -35 38 -43 95 -7 54
3 57 34 9z m2109 -16 c-3 -8 -6 -5 -6 6 -1 11 2 17 5 13 3 -3 4 -12 1 -19z
m-1677 -67 c0 -38 -17 -13 -25 34 -6 39 -6 39 9 15 8 -14 15 -36 16 -49z m944
8 c-3 -15 -14 -49 -25 -75 l-20 -49 5 55 c7 72 25 127 37 108 5 -7 6 -25 3
-39z m875 -59 c0 -8 -6 3 -14 25 -8 22 -14 51 -14 65 1 16 6 7 15 -25 7 -27
14 -57 13 -65z m363 102 c-9 -7 -10 -15 -3 -35 6 -14 8 -36 5 -49 -11 -57 -12
-68 -9 -68 3 0 11 12 18 27 l15 27 11 -53 c15 -72 14 -77 -11 -54 -35 31 -63
43 -103 43 -40 0 -40 2 -10 76 13 32 73 94 90 94 6 0 4 -4 -3 -8z m2324 -39
c-3 -27 -9 -75 -12 -108 -3 -33 -8 -62 -11 -65 -3 -3 -2 55 6 203 1 9 6 17 12
17 7 0 9 -16 5 -47z m-2465 0 c-8 -15 -10 -15 -11 -2 0 17 10 32 18 25 2 -3
-1 -13 -7 -23z m203 -40 c-3 -32 -8 -60 -10 -62 -6 -7 -5 86 2 103 12 30 15
16 8 -41z m-1959 -9 c5 -66 -8 -91 -16 -29 -5 49 -1 91 8 81 3 -3 7 -26 8 -52z
m452 24 c-3 -7 -5 -2 -5 12 0 14 2 19 5 13 2 -7 2 -19 0 -25z m2490 10 c-3 -8
-6 -5 -6 6 -1 11 2 17 5 13 3 -3 4 -12 1 -19z m615 -61 c-3 -66 -8 -80 -18
-53 -8 20 5 130 14 121 4 -3 5 -34 4 -68z m-2597 -25 c-1 -1 -12 -4 -24 -7
-32 -6 -41 -14 -41 -36 0 -20 -1 -20 -29 -3 -28 17 -29 19 -15 45 7 15 22 30
33 34 10 3 27 15 37 26 18 20 18 20 29 -18 7 -21 11 -39 10 -41z m1809 19 l21
-24 -22 14 c-12 7 -26 24 -32 36 -14 31 -14 44 1 18 6 -11 20 -31 32 -44z
m1159 44 c-3 -9 -8 -14 -10 -11 -3 3 -2 9 2 15 9 16 15 13 8 -4z m-4751 -112
c-6 -52 -13 -32 -17 49 -4 72 -4 73 8 29 7 -25 11 -60 9 -78z m733 40 c-4 -43
-8 -80 -11 -83 -6 -6 -3 142 3 153 11 19 13 1 8 -70z m287 5 c2 -38 1 -68 -3
-68 -8 0 -16 84 -11 118 6 38 10 22 14 -50z m243 1 c4 -38 4 -73 1 -76 -3 -4
-6 5 -7 18 0 13 -2 31 -4 39 -15 71 -16 90 -7 90 5 0 13 -32 17 -71z m2512 49
c-3 -8 -6 -5 -6 6 -1 11 2 17 5 13 3 -3 4 -12 1 -19z m722 -55 c3 -59 -4 -54
-13 11 -5 27 -4 46 1 43 5 -3 10 -27 12 -54z m248 0 c-3 -10 -5 -2 -5 17 0 19
2 27 5 18 2 -10 2 -26 0 -35z m-4250 -15 c-3 -7 -5 -2 -5 12 0 14 2 19 5 13 2
-7 2 -19 0 -25z m2533 3 c0 -13 -26 -32 -33 -24 -8 7 11 33 24 33 5 0 9 -4 9
-9z m1465 -166 c7 -76 8 -110 5 -290 l-2 -120 -14 55 c-9 38 -12 104 -10 211
4 142 1 175 -20 261 -3 15 -3 36 1 45 10 23 31 -63 40 -162z m-1932 125 c3
-11 1 -20 -4 -20 -4 0 -13 9 -19 20 -8 16 -8 20 3 20 8 0 17 -9 20 -20z
m-1937 -38 c-10 -10 -29 15 -21 28 6 9 10 8 17 -4 6 -10 7 -20 4 -24z m3109
-31 c-2 -4 -5 -24 -7 -44 -3 -48 -15 -47 -20 1 -5 56 0 76 18 61 7 -6 12 -15
9 -18z m-3171 -57 c19 -74 19 -95 1 -39 l-13 40 -2 -52 c-3 -64 -4 -70 -10
-76 -3 -3 -5 42 -6 99 -1 58 3 101 7 97 4 -4 15 -36 23 -69z m3129 14 c4 -46
2 -58 -9 -58 -8 0 -14 10 -15 23 0 12 -2 31 -4 41 -3 18 13 62 20 54 1 -1 5
-29 8 -60z m184 -10 c-2 -13 -4 -3 -4 22 0 25 2 35 4 23 2 -13 2 -33 0 -45z
m-1421 -71 c36 -42 44 -90 38 -217 -10 -186 -7 -267 8 -276 4 -3 5 15 2 40 -8
53 7 62 29 19 12 -24 15 -60 8 -122 -1 -19 -18 -3 -24 24 -2 11 -3 3 -1 -17 4
-35 2 -38 -33 -47 -62 -17 -61 -19 -62 80 -1 50 -3 94 -5 98 -5 9 -19 175 -20
241 -1 30 4 82 10 115 11 64 11 85 0 125 -6 22 -4 21 10 -5 9 -16 27 -43 40
-58z m41 61 c-3 -8 -6 -5 -6 6 -1 11 2 17 5 13 3 -3 4 -12 1 -19z m1118 -56
c-5 -14 -8 -14 -15 -3 -8 15 -4 57 8 75 9 14 15 -51 7 -72z m-816 8 c0 -11 -3
-10 -14 4 -8 11 -15 29 -15 40 1 19 2 19 15 -4 8 -14 14 -32 14 -40z m2048 38
c-3 -8 -6 -5 -6 6 -1 11 2 17 5 13 3 -3 4 -12 1 -19z m-3257 -12 c0 -14 -5
-28 -10 -31 -13 -8 -24 20 -16 40 9 24 26 17 26 -9z m1411 8 c7 -4 28 -7 48
-6 35 0 34 0 -16 -17 -29 -10 -59 -23 -66 -30 -17 -13 -27 4 -27 45 0 21 4 24
25 20 13 -3 30 -8 36 -12z m913 -14 c4 -22 -2 -46 -19 -82 -14 -29 -25 -61
-25 -72 0 -12 -5 -28 -10 -36 -12 -19 -3 47 16 114 8 27 14 62 14 78 0 37 16
36 24 -2z m-3636 -36 c-3 -27 -4 -26 -9 8 -3 22 -1 34 4 29 5 -5 7 -21 5 -37z
m2986 24 c-1 -13 -3 -43 -4 -68 l-2 -45 -10 40 c-6 27 -6 49 1 68 13 33 19 35
15 5z m-1754 -29 c0 -18 -4 -28 -10 -24 -5 3 -10 20 -10 36 0 18 4 28 10 24 6
-3 10 -20 10 -36z m240 -32 c0 -22 -4 -28 -17 -25 -21 4 -27 29 -18 65 6 24 7
25 20 7 8 -11 15 -32 15 -47z m3163 -50 c-2 -93 -39 -267 -43 -202 -1 17 -4
46 -6 65 -7 59 -11 204 -5 225 4 16 7 13 17 -15 l12 -35 1 40 c1 31 3 36 14
26 8 -8 11 -41 10 -104z m-3070 73 c3 -11 1 -23 -4 -26 -5 -3 -9 6 -9 20 0 31
6 34 13 6z m-1395 -56 c10 -27 17 -60 16 -74 -1 -14 -2 -35 -3 -48 -3 -62 -32
27 -47 143 -7 62 8 52 34 -21z m2264 45 c-13 -5 -22 -12 -20 -16 33 -64 39
-90 33 -138 -3 -28 -17 -70 -30 -93 -29 -52 -19 -54 28 -5 31 31 37 34 43 20
18 -47 -17 -162 -52 -174 -6 -2 -34 15 -62 38 -59 46 -99 61 -124 45 -9 -6
-19 -8 -22 -5 -11 11 35 195 61 247 24 47 35 58 73 73 25 10 56 18 70 18 l25
0 -23 -10z m1553 -117 c-2 -36 -9 -70 -15 -76 -8 -8 -11 13 -9 79 1 50 5 97 8
105 9 28 20 -42 16 -108z m-3953 -19 c0 -45 -6 -98 -12 -119 -12 -35 -14 -36
-21 -17 -9 24 -5 140 7 218 6 45 8 47 17 25 5 -14 9 -62 9 -107z m2033 5 c-3
-169 -5 -192 -12 -184 -4 3 -9 14 -11 24 -6 30 -5 198 2 236 13 67 24 28 21
-76z m197 33 c-10 -29 -21 -49 -24 -46 -7 7 3 42 24 82 19 38 19 20 0 -36z
m554 -6 c-8 -8 -17 -15 -20 -15 -3 0 -6 7 -6 15 0 9 9 15 21 15 18 0 19 -2 5
-15z m152 -206 c0 -138 -2 -159 -20 -187 -11 -18 -24 -29 -29 -26 -5 3 -8 8
-5 12 2 4 6 45 10 92 9 119 16 192 20 215 3 11 5 43 6 70 2 49 2 49 10 15 5
-19 9 -105 8 -191z m-1801 179 c-3 -7 -5 -2 -5 12 0 14 2 19 5 13 2 -7 2 -19
0 -25z m1725 -13 c8 -22 13 -69 12 -105 -1 -36 -2 -94 -3 -129 0 -35 -3 -62
-5 -60 -2 2 -7 38 -10 79 -8 85 -22 154 -37 181 -7 14 -5 23 10 35 11 10 17
24 14 33 -4 9 -4 14 0 11 3 -3 12 -23 19 -45z m-1672 -65 c7 -33 10 -63 6 -67
-3 -3 -6 2 -6 13 0 10 -7 39 -15 64 l-15 45 6 -40 c8 -49 8 -64 0 -144 -7 -72
-16 -92 -17 -40 -1 107 -2 188 0 218 2 52 26 23 41 -49z m1384 -6 c-1 -30 -4
-58 -7 -60 -10 -10 -19 56 -12 86 11 49 22 34 19 -26z m2082 -41 c2 -24 0 -43
-5 -43 -10 0 -21 50 -21 94 1 28 2 29 12 12 6 -11 13 -39 14 -63z m-4421 -96
c0 -73 -3 -152 -8 -177 -9 -57 -25 -110 -26 -90 -1 8 -10 -8 -19 -36 -22 -64
-45 -100 -74 -115 -17 -9 -14 -4 10 20 17 18 33 38 33 44 1 7 3 30 4 52 1 22
12 94 23 160 23 135 32 203 34 258 1 27 4 35 12 27 7 -7 11 -61 11 -143z
m2600 43 c2 -14 7 -61 10 -105 3 -44 8 -92 11 -107 11 -54 -35 -23 -62 40 -22
53 -19 237 4 277 6 9 28 -54 37 -105z m1249 73 c-3 -21 -10 -42 -16 -48 -9
-10 -2 59 9 78 10 17 13 5 7 -30z m-3011 -23 c-3 -12 -8 -19 -11 -16 -5 6 5
36 12 36 2 0 2 -9 -1 -20z m1618 -12 c-3 -21 -6 -26 -9 -15 -3 17 3 47 11 47
2 0 1 -15 -2 -32z m1016 -10 c-3 -8 -6 -5 -6 6 -1 11 2 17 5 13 3 -3 4 -12 1
-19z m-1977 -25 c0 -7 -4 -13 -10 -13 -5 0 -10 12 -10 28 0 21 2 24 10 12 5
-8 10 -21 10 -27z m-170 -47 c0 -39 -6 -30 -13 19 -4 27 -3 35 3 25 5 -8 10
-28 10 -44z m507 -43 c0 -71 -1 -81 -9 -53 -13 49 -9 140 6 140 1 0 2 -39 3
-87z m-144 12 c4 -32 3 -43 -3 -30 -8 19 -14 93 -6 84 2 -2 6 -26 9 -54z
m1786 3 c0 -76 -10 -178 -18 -178 -3 0 -5 27 -5 60 2 67 13 170 20 170 2 0 4
-24 3 -52z m-1612 -92 c6 -104 5 -110 -22 -167 -16 -32 -30 -57 -32 -55 -3 2
4 22 15 43 11 23 17 56 16 79 l-3 39 8 -35 c8 -35 8 -35 10 12 1 35 -4 50 -16
58 -14 9 -14 10 -2 7 14 -5 15 4 11 66 -2 40 -2 69 2 66 4 -3 9 -54 13 -113z
m518 58 c9 -15 12 -23 6 -20 -11 7 -35 46 -28 46 3 0 12 -12 22 -26z m1056
-148 c0 -75 -2 -139 -4 -143 -3 -5 -8 -46 -11 -93 -12 -150 -18 -100 -11 90 4
102 8 201 10 220 1 19 3 44 4 54 0 11 4 17 7 14 3 -3 5 -67 5 -142z m-3007 64
c5 -23 4 -30 -2 -20 -5 8 -12 31 -15 50 -4 22 -3 29 2 20 5 -8 12 -31 15 -50z
m1286 10 c0 -14 -4 -31 -9 -39 -6 -9 -9 4 -8 38 0 31 4 47 9 39 4 -7 8 -24 8
-38z m-964 10 c2 -27 -65 -105 -78 -92 -8 8 20 77 45 110 14 18 32 9 33 -18z
m3001 -12 c-3 -7 -5 -2 -5 12 0 14 2 19 5 13 2 -7 2 -19 0 -25z m-2309 -14
c-3 -14 -5 -12 -10 9 -3 19 -2 25 4 19 6 -6 8 -18 6 -28z m2282 28 c0 -5 -7
-17 -15 -28 -14 -18 -14 -17 -4 9 12 27 19 34 19 19z m-3130 -5 c0 -2 -10 -12
-22 -23 l-23 -19 19 23 c18 21 26 27 26 19z m-1222 -114 c0 -47 -3 -82 -6 -79
-3 4 -6 47 -7 96 -1 50 2 85 6 78 4 -6 7 -49 7 -95z m4423 36 c16 -52 20 -85
16 -122 l-6 -52 25 30 c26 32 24 11 -4 -32 -15 -24 -62 -32 -62 -11 0 6 -3 9
-6 5 -4 -3 -2 -19 4 -35 9 -26 8 -29 -8 -25 -12 3 -17 12 -15 26 2 12 6 63 10
112 3 50 8 99 10 110 2 11 4 30 4 43 2 37 9 25 32 -49z m641 0 c-1 -24 -9 -75
-17 -114 -22 -104 -23 -115 -24 -174 -1 -30 -3 -52 -6 -49 -5 5 -6 245 -2 298
4 38 28 91 41 87 6 -2 10 -22 8 -48z m-2296 4 c-11 -11 -19 6 -11 24 8 17 8
17 12 0 3 -10 2 -21 -1 -24z m-681 -21 c6 -20 10 -73 9 -117 -1 -44 -3 -107
-3 -139 -2 -100 -10 -57 -17 84 -3 74 -10 144 -14 156 -5 11 -4 27 0 34 5 8 6
19 3 25 -4 5 -2 6 3 2 5 -5 13 -25 19 -45z m930 -67 c10 -22 18 -50 19 -62 1
-18 -2 -20 -16 -12 -11 6 -18 21 -18 40 0 16 -6 44 -13 62 -12 29 -13 44 -7
65 1 4 5 -6 10 -23 4 -16 15 -48 25 -70z m-1597 20 c-12 -24 -25 -42 -30 -39
-5 3 -5 11 0 17 4 7 16 24 25 40 27 42 29 32 5 -18z m2935 -57 c-3 -46 -6 -85
-8 -86 -9 -9 -38 67 -39 101 -1 36 20 67 45 67 4 0 5 -37 2 -82z m-4193 9 c31
-54 37 -82 20 -92 -6 -3 -19 14 -30 40 -11 25 -26 48 -35 51 -15 6 -21 45 -9
57 11 11 23 -2 54 -56z m2706 35 c-2 -4 -7 -34 -11 -67 -7 -68 -14 -84 -16
-34 -2 63 7 109 22 109 6 0 8 -3 5 -8z m-611 -77 c1 -36 0 -63 -2 -61 -11 11
-21 82 -16 108 9 44 16 25 18 -47z m458 49 c9 -9 -4 -35 -14 -28 -5 3 -9 12
-9 20 0 14 12 19 23 8z m-591 -125 c-1 -23 -5 -46 -11 -52 -6 -6 -8 -3 -6 9 2
11 4 37 4 58 1 22 4 37 7 33 4 -3 6 -25 6 -48z m1385 29 c-3 -8 -6 -5 -6 6 -1
11 2 17 5 13 3 -3 4 -12 1 -19z m-2727 -37 c0 -32 -6 -24 -14 19 -4 25 -3 31
4 20 5 -8 10 -26 10 -39z m1813 37 c-4 -7 -6 -23 -4 -35 1 -13 -2 -23 -8 -23
-12 0 -15 52 -4 63 11 12 24 7 16 -5z m866 -60 c-1 -35 -3 -54 -6 -43 -2 11
-9 32 -15 48 -8 20 -7 31 2 42 7 8 14 15 16 15 2 0 3 -28 3 -62z m-632 30 c-3
-8 -6 -5 -6 6 -1 11 2 17 5 13 3 -3 4 -12 1 -19z m-543 -48 c3 -30 12 -79 20
-109 17 -62 7 -57 -17 9 -17 50 -20 66 -18 124 1 53 7 43 15 -24z m2711 -55
c11 -164 12 -205 7 -201 -2 3 -7 25 -9 48 -2 24 -9 58 -13 77 -8 29 -3 187 6
179 1 -2 5 -48 9 -103z m-162 84 c9 7 13 -2 14 -30 2 -35 0 -38 -20 -35 -17 2
-22 10 -23 32 -1 33 8 54 14 36 3 -9 8 -10 15 -3z m-1573 -19 c0 -5 -4 -10
-10 -10 -5 0 -10 5 -10 10 0 6 5 10 10 10 6 0 10 -4 10 -10z m-2473 -27 c1
-24 1 -25 -7 -8 -11 26 -12 35 -2 35 4 0 8 -12 9 -27z m3406 -25 l-10 -33 -1
44 c0 32 2 41 10 33 8 -8 8 -21 1 -44z m-3813 28 c0 -3 -4 -8 -10 -11 -5 -3
-10 -1 -10 4 0 6 5 11 10 11 6 0 10 -2 10 -4z m860 -40 c4 -21 4 -36 -1 -36
-5 0 -9 11 -9 24 0 13 -3 33 -7 43 -3 10 -3 15 1 11 4 -3 11 -23 16 -42z
m1753 24 c3 -11 1 -18 -4 -14 -5 3 -9 12 -9 20 0 20 7 17 13 -6z m-1865 -56
c3 -29 1 -44 -6 -40 -5 3 -10 27 -10 52 -2 58 9 50 16 -12z m1199 24 c-3 -8
-6 -5 -6 6 -1 11 2 17 5 13 3 -3 4 -12 1 -19z m1710 -35 c-3 -10 -5 -4 -5 12
0 17 2 24 5 18 2 -7 2 -21 0 -30z m-358 -40 c1 -32 0 -55 -2 -53 -9 10 -18
122 -10 117 5 -4 11 -32 12 -64z m47 14 c-23 -49 -34 -52 -30 -10 1 15 2 33 3
40 1 11 30 23 42 16 4 -1 -3 -22 -15 -46z m-2172 -15 c-10 -63 -21 -68 -21 -9
0 42 3 54 13 50 10 -3 12 -16 8 -41z m-403 -3 c-10 -23 -10 -22 -8 8 0 18 5
29 9 25 5 -5 4 -19 -1 -33z m1974 -40 c2 -85 -9 -81 -13 4 -2 39 0 68 5 64 4
-5 8 -35 8 -68z m-2478 4 c0 -42 -1 -44 -7 -18 -11 43 -11 77 -1 71 5 -3 8
-27 8 -53z m2500 25 c-3 -7 -5 -2 -5 12 0 14 2 19 5 13 2 -7 2 -19 0 -25z
m1397 -31 c16 -50 19 -68 31 -186 7 -65 -3 -64 -11 0 -7 59 -33 165 -50 206
-17 40 -17 44 0 37 7 -3 21 -29 30 -57z m-4434 16 c0 -32 -5 -28 -14 10 -4 19
-3 26 4 22 5 -3 10 -18 10 -32z m1017 5 c-3 -8 -6 -5 -6 6 -1 11 2 17 5 13 3
-3 4 -12 1 -19z m1503 -42 c-3 -30 -5 -66 -4 -81 2 -53 -17 -7 -24 59 -7 56
-6 68 7 76 24 13 28 5 21 -54z m-1963 22 c-3 -7 -5 -2 -5 12 0 14 2 19 5 13 2
-7 2 -19 0 -25z m3943 15 c0 -5 -7 -28 -14 -53 -9 -28 -15 -36 -15 -22 -1 29
-2 33 -12 60 -7 19 -5 22 16 22 14 0 25 -3 25 -7z m-4086 -92 c-4 -22 -11 -41
-16 -41 -5 0 -7 8 -4 18 3 9 8 30 12 45 10 42 16 26 8 -22z m1713 -8 c-3 -10
-5 -2 -5 17 0 19 2 27 5 18 2 -10 2 -26 0 -35z m893 -9 c0 -8 -4 -12 -10 -9
-5 3 -10 10 -10 16 0 5 5 9 10 9 6 0 10 -7 10 -16z m-2646 -16 c-1 -13 -3 -43
-3 -67 -1 -24 -3 -42 -6 -40 -8 9 -17 108 -10 118 11 19 22 12 19 -11z m-129
-56 c-2 -9 -4 -44 -4 -76 -1 -84 -9 -66 -16 39 -5 80 -5 88 8 72 8 -10 14 -26
12 -35z m2772 1 c-3 -10 -5 -2 -5 17 0 19 2 27 5 18 2 -10 2 -26 0 -35z
m-2620 -3 c-2 -23 -7 -43 -10 -46 -3 -3 -4 9 -2 28 2 18 4 39 4 46 1 6 4 12 7
12 3 0 4 -18 1 -40z m4273 -5 c0 -19 -4 -35 -8 -35 -4 0 -9 16 -10 35 -2 19 2
35 8 35 5 0 10 -16 10 -35z m-3118 -52 c2 -24 0 -43 -3 -43 -4 0 -9 22 -11 50
-4 59 8 53 14 -7z m-1165 -35 c-3 -7 -5 -2 -5 12 0 14 2 19 5 13 2 -7 2 -19 0
-25z"/>
<path d="M788 3950 c2 -38 7 -70 12 -70 4 0 7 8 5 18 -2 9 -4 41 -4 70 -1 28
-4 52 -8 52 -5 0 -7 -31 -5 -70z"/>
<path d="M5326 4035 c4 -8 8 -15 10 -15 2 0 4 7 4 15 0 8 -4 15 -10 15 -5 0
-7 -7 -4 -15z"/>
<path d="M5325 4000 c3 -5 8 -10 11 -10 2 0 4 5 4 10 0 6 -5 10 -11 10 -5 0
-7 -4 -4 -10z"/>
<path d="M5331 3964 c0 -11 3 -14 6 -6 3 7 2 16 -1 19 -3 4 -6 -2 -5 -13z"/>
<path d="M5310 3131 c0 -25 6 -27 13 -6 4 8 2 17 -3 20 -6 4 -10 -3 -10 -14z"/>
<path d="M5310 3089 c0 -5 5 -7 10 -4 6 3 10 8 10 11 0 2 -4 4 -10 4 -5 0 -10
-5 -10 -11z"/>
<path d="M5310 2978 c0 -50 2 -89 4 -87 8 8 12 179 4 179 -4 0 -8 -41 -8 -92z"/>
<path d="M5141 2984 c0 -11 3 -14 6 -6 3 7 2 16 -1 19 -3 4 -6 -2 -5 -13z"/>
<path d="M5141 2924 c0 -11 3 -14 6 -6 3 7 2 16 -1 19 -3 4 -6 -2 -5 -13z"/>
<path d="M5309 2878 c-6 -20 -6 -39 0 -42 4 -3 7 6 7 20 0 20 -4 32 -7 22z"/>
<path d="M5152 2810 c0 -19 2 -27 5 -17 2 9 2 25 0 35 -3 9 -5 1 -5 -18z"/>
<path d="M5305 2809 c-4 -6 -5 -12 -2 -15 2 -3 7 2 10 11 7 17 1 20 -8 4z"/>
<path d="M5305 2769 c-4 -6 -5 -12 -2 -15 2 -3 7 2 10 11 7 17 1 20 -8 4z"/>
<path d="M3962 3135 c0 -16 2 -22 5 -12 2 9 2 23 0 30 -3 6 -5 -1 -5 -18z"/>
<path d="M2503 3545 c0 -8 4 -15 9 -15 4 0 8 4 8 9 0 6 -4 12 -8 15 -5 3 -9
-1 -9 -9z"/>
<path d="M2512 3495 c0 -16 2 -22 5 -12 2 9 2 23 0 30 -3 6 -5 -1 -5 -18z"/>
<path d="M2511 3444 c0 -11 3 -14 6 -6 3 7 2 16 -1 19 -3 4 -6 -2 -5 -13z"/>
<path d="M2270 4060 c0 -5 5 -10 11 -10 5 0 7 5 4 10 -3 6 -8 10 -11 10 -2 0
-4 -4 -4 -10z"/>
<path d="M4711 3794 c0 -11 3 -14 6 -6 3 7 2 16 -1 19 -3 4 -6 -2 -5 -13z"/>
<path d="M1291 3774 c0 -11 3 -14 6 -6 3 7 2 16 -1 19 -3 4 -6 -2 -5 -13z"/>
<path d="M4710 3759 c0 -5 5 -7 10 -4 6 3 10 8 10 11 0 2 -4 4 -10 4 -5 0 -10
-5 -10 -11z"/>
<path d="M1852 2950 c0 -14 2 -19 5 -12 2 6 2 18 0 25 -3 6 -5 1 -5 -13z"/>
<path d="M1364 2685 c0 -49 1 -71 3 -48 2 23 2 64 0 90 -2 26 -3 8 -3 -42z"/>
<path d="M4419 2758 c-6 -21 -6 -43 1 -66 6 -22 8 -18 6 20 -1 41 -3 57 -7 46z"/>
<path d="M4342 2690 c0 -14 2 -19 5 -12 2 6 2 18 0 25 -3 6 -5 1 -5 -13z"/>
<path d="M2250 2650 c0 -11 4 -20 8 -20 4 0 8 9 8 20 0 11 -4 20 -8 20 -4 0
-8 -9 -8 -20z"/>
<path d="M4342 2630 c0 -14 2 -19 5 -12 2 6 2 18 0 25 -3 6 -5 1 -5 -13z"/>
<path d="M2253 2580 c0 -16 2 -28 5 -25 8 8 11 55 3 55 -4 0 -8 -13 -8 -30z"/>
<path d="M4422 2590 c0 -14 2 -19 5 -12 2 6 2 18 0 25 -3 6 -5 1 -5 -13z"/>
<path d="M2257 2533 c-10 -9 -9 -23 1 -23 5 0 9 7 9 15 0 17 -1 18 -10 8z"/>
<path d="M4432 2510 c0 -14 2 -19 5 -12 2 6 2 18 0 25 -3 6 -5 1 -5 -13z"/>
<path d="M2423 2440 c0 -25 2 -35 4 -22 2 12 2 32 0 45 -2 12 -4 2 -4 -23z"/>
<path d="M2420 2380 c0 -5 5 -10 11 -10 5 0 7 5 4 10 -3 6 -8 10 -11 10 -2 0
-4 -4 -4 -10z"/>
<path d="M2427 2321 c-4 -17 -3 -21 5 -13 5 5 8 16 6 23 -3 8 -7 3 -11 -10z"/>
<path d="M2420 2283 c0 -5 5 -15 10 -23 7 -12 9 -10 7 8 -1 19 -17 33 -17 15z"/>
<path d="M499 2138 c-1 -57 -2 -121 -4 -143 -2 -27 -1 -34 5 -20 9 23 14 265
5 265 -3 0 -5 -46 -6 -102z"/>
<path d="M1478 2068 c4 -176 9 -186 11 -20 0 78 -2 142 -6 142 -5 0 -7 -55 -5
-122z"/>
<path d="M4854 2105 c1 -47 4 -85 9 -85 4 0 7 38 7 85 0 47 -4 85 -8 85 -5 0
-8 -38 -8 -85z"/>
<path d="M2841 2004 c0 -11 3 -14 6 -6 3 7 2 16 -1 19 -3 4 -6 -2 -5 -13z"/>
<path d="M4531 2004 c0 -11 3 -14 6 -6 3 7 2 16 -1 19 -3 4 -6 -2 -5 -13z"/>
<path d="M4673 1984 c0 -19 1 -33 4 -31 8 9 12 67 5 67 -4 0 -8 -16 -9 -36z"/>
<path d="M4852 1990 c0 -14 2 -19 5 -12 2 6 2 18 0 25 -3 6 -5 1 -5 -13z"/>
<path d="M2851 1964 c0 -11 3 -14 6 -6 3 7 2 16 -1 19 -3 4 -6 -2 -5 -13z"/>
<path d="M4542 1950 c0 -19 2 -27 5 -17 2 9 2 25 0 35 -3 9 -5 1 -5 -18z"/>
<path d="M492 1930 c0 -14 2 -19 5 -12 2 6 2 18 0 25 -3 6 -5 1 -5 -13z"/>
<path d="M4670 1925 c0 -8 2 -15 4 -15 2 0 6 7 10 15 3 8 1 15 -4 15 -6 0 -10
-7 -10 -15z"/>
<path d="M4670 1882 c0 -12 4 -22 9 -22 10 0 9 26 -2 36 -4 4 -7 -2 -7 -14z"/>
<path d="M4673 1835 c0 -8 4 -12 9 -9 4 3 8 9 8 15 0 5 -4 9 -8 9 -5 0 -9 -7
-9 -15z"/>
<path d="M1799 1834 c-3 -24 3 -117 11 -189 7 -67 8 -59 3 55 -2 74 -7 137 -9
139 -2 2 -4 0 -5 -5z"/>
<path d="M2587 1827 c-3 -8 -2 -20 3 -26 5 -9 8 -4 8 13 0 29 -3 32 -11 13z"/>
<path d="M2593 1740 c0 -25 2 -35 4 -22 2 12 2 32 0 45 -2 12 -4 2 -4 -23z"/>
<path d="M5491 1663 c1 -65 3 -111 5 -103 7 31 9 220 2 220 -5 0 -7 -53 -7
-117z"/>
<path d="M1150 1760 c0 -5 5 -10 10 -10 6 0 10 5 10 10 0 6 -4 10 -10 10 -5 0
-10 -4 -10 -10z"/>
<path d="M3341 1734 c0 -11 3 -14 6 -6 3 7 2 16 -1 19 -3 4 -6 -2 -5 -13z"/>
<path d="M4183 1715 c0 -19 2 -33 5 -30 8 8 10 65 3 65 -4 0 -8 -16 -8 -35z"/>
<path d="M1151 1613 c0 -71 2 -123 4 -118 8 21 10 245 3 245 -4 0 -8 -57 -7
-127z"/>
<path d="M3004 1655 c6 -46 12 -83 14 -80 7 6 -9 165 -17 165 -3 0 -2 -38 3
-85z"/>
<path d="M5086 1695 c4 -8 8 -15 10 -15 2 0 4 7 4 15 0 8 -4 15 -10 15 -5 0
-7 -7 -4 -15z"/>
<path d="M2761 1674 c0 -11 3 -14 6 -6 3 7 2 16 -1 19 -3 4 -6 -2 -5 -13z"/>
<path d="M3342 1650 c0 -14 2 -19 5 -12 2 6 2 18 0 25 -3 6 -5 1 -5 -13z"/>
<path d="M4180 1659 c0 -5 5 -7 10 -4 6 3 10 8 10 11 0 2 -4 4 -10 4 -5 0 -10
-5 -10 -11z"/>
<path d="M5083 1655 c0 -8 4 -12 9 -9 4 3 8 9 8 15 0 5 -4 9 -8 9 -5 0 -9 -7
-9 -15z"/>
<path d="M3441 1644 c0 -11 3 -14 6 -6 3 7 2 16 -1 19 -3 4 -6 -2 -5 -13z"/>
<path d="M2028 1610 c2 -22 6 -40 8 -40 2 0 4 18 4 40 0 22 -3 40 -8 40 -4 0
-6 -18 -4 -40z"/>
<path d="M2761 1634 c0 -11 3 -14 6 -6 3 7 2 16 -1 19 -3 4 -6 -2 -5 -13z"/>
<path d="M4182 1610 c0 -19 2 -27 5 -17 2 9 2 25 0 35 -3 9 -5 1 -5 -18z"/>
<path d="M2762 1580 c0 -19 2 -27 5 -17 2 9 2 25 0 35 -3 9 -5 1 -5 -18z"/>
<path d="M1650 1580 c0 -5 5 -10 10 -10 6 0 10 5 10 10 0 6 -4 10 -10 10 -5 0
-10 -4 -10 -10z"/>
<path d="M3974 1504 c-1 -41 2 -74 5 -74 7 0 8 136 1 143 -3 3 -6 -28 -6 -69z"/>
<path d="M4182 1550 c0 -14 2 -19 5 -12 2 6 2 18 0 25 -3 6 -5 1 -5 -13z"/>
<path d="M1663 1520 c0 -25 2 -35 4 -22 2 12 2 32 0 45 -2 12 -4 2 -4 -23z"/>
<path d="M998 1503 c5 -76 10 -83 11 -15 0 34 -2 62 -7 62 -4 0 -6 -21 -4 -47z"/>
<path d="M5083 1535 c0 -8 4 -12 9 -9 5 3 6 10 3 15 -9 13 -12 11 -12 -6z"/>
<path d="M5491 1524 c0 -11 3 -14 6 -6 3 7 2 16 -1 19 -3 4 -6 -2 -5 -13z"/>
<path d="M5083 1495 c0 -8 4 -12 9 -9 5 3 6 10 3 15 -9 13 -12 11 -12 -6z"/>
<path d="M1816 1487 c3 -10 9 -15 12 -12 3 3 0 11 -7 18 -10 9 -11 8 -5 -6z"/>
<path d="M3021 1484 c0 -11 3 -14 6 -6 3 7 2 16 -1 19 -3 4 -6 -2 -5 -13z"/>
<path d="M5491 1484 c0 -11 3 -14 6 -6 3 7 2 16 -1 19 -3 4 -6 -2 -5 -13z"/>
<path d="M1660 1444 c0 -14 4 -23 9 -20 5 3 7 15 4 26 -7 28 -13 25 -13 -6z"/>
<path d="M5082 1450 c0 -14 2 -19 5 -12 2 6 2 18 0 25 -3 6 -5 1 -5 -13z"/>
<path d="M1011 1404 c0 -11 3 -14 6 -6 3 7 2 16 -1 19 -3 4 -6 -2 -5 -13z"/>
<path d="M4191 1404 c0 -11 3 -14 6 -6 3 7 2 16 -1 19 -3 4 -6 -2 -5 -13z"/>
<path d="M3970 1379 c0 -5 5 -7 10 -4 6 3 10 8 10 11 0 2 -4 4 -10 4 -5 0 -10
-5 -10 -11z"/>
<path d="M3970 1330 c0 -11 2 -20 4 -20 2 0 6 9 9 20 3 11 1 20 -4 20 -5 0 -9
-9 -9 -20z"/>
<path d="M5492 1310 c0 -14 2 -19 5 -12 2 6 2 18 0 25 -3 6 -5 1 -5 -13z"/>
<path d="M3631 1284 c0 -11 3 -14 6 -6 3 7 2 16 -1 19 -3 4 -6 -2 -5 -13z"/>
<path d="M3126 1267 c3 -10 9 -15 12 -12 3 3 0 11 -7 18 -10 9 -11 8 -5 -6z"/>
<path d="M679 1268 c-6 -21 -5 -38 1 -38 5 0 8 9 7 20 -1 17 -5 26 -8 18z"/>
<path d="M5259 1243 c-5 -39 -5 -63 1 -63 4 0 7 16 8 35 1 19 -1 35 -3 35 -3
0 -5 -3 -6 -7z"/>
<path d="M676 1205 c-3 -8 -1 -15 4 -15 6 0 10 7 10 15 0 8 -2 15 -4 15 -2 0
-6 -7 -10 -15z"/>
<path d="M5250 1160 c0 -5 5 -10 10 -10 6 0 10 5 10 10 0 6 -4 10 -10 10 -5 0
-10 -4 -10 -10z"/>
<path d="M5250 1060 c0 -46 2 -81 4 -79 8 7 10 149 3 156 -4 3 -7 -31 -7 -77z"/>
<path d="M828 1018 c5 -95 9 -104 11 -25 0 42 -2 77 -6 77 -5 0 -7 -24 -5 -52z"/>
<path d="M5243 921 c0 -11 5 -18 9 -15 4 3 5 11 1 19 -7 21 -12 19 -10 -4z"/>
<path d="M842 870 c0 -14 2 -19 5 -12 2 6 2 18 0 25 -3 6 -5 1 -5 -13z"/>
</g>
</svg>
